PathFileType	4	(X/Y/Z)	Patient4_TMGait_0pt7_01_left_43.trc.trc
DataRate	CameraRate	NumFrames	NumMarkers	Units	OrigDataRate	OrigDataStartFrame	OrigNumFrames
83.832335329341	83.832335329341	5	33	mm	83.832335329341	124	       141
Frame#	Time	Sacral			L.Shoulder			Chest			R.Shoulder			Neck			R.ASIS			L.ASIS			R.Thigh.Superior			R.Thigh.Lateral			R.Thigh.Inferior			R.Patella			L.Thigh.Superior			L.Thigh.Lateral			L.Thigh.Inferior			L.Patella			L.Shank.Superior			L.Shank.Lateral			L.Shank.Inferior			R.Shank.Superior			R.Shank.Lateral			R.Shank.Inferior			R.Heel			R.Midfoot.Superior			R.Midfoot.Lateral			R.Toe			L.Heel			L.Midfoot.Lateral			L.Midfoot.Superior			L.Toe			L.Elbow			L.Wrist			R.Elbow			R.Wrist			
		X1	Y1	Z1	X2	Y2	Z2	X3	Y3	Z3	X4	Y4	Z4	X5	Y5	Z5	X6	Y6	Z6	X7	Y7	Z7	X8	Y8	Z8	X9	Y9	Z9	X10	Y10	Z10	X11	Y11	Z11	X12	Y12	Z12	X13	Y13	Z13	X14	Y14	Z14	X15	Y15	Z15	X16	Y16	Z16	X17	Y17	Z17	X18	Y18	Z18	X19	Y19	Z19	X20	Y20	Z20	X21	Y21	Z21	X22	Y22	Z22	X23	Y23	Z23	X24	Y24	Z24	X25	Y25	Z25	X26	Y26	Z26	X27	Y27	Z27	X28	Y28	Z28	X29	Y29	Z29	X30	Y30	Z30	X31	Y31	Z31	X32	Y32	Z32	X33	Y33	Z33	

124	51.267214285714	844.263228962155	1003.634370050198	487.532651037182	1014.573821146099	1416.062372709838	281.173245670060	1140.394407356189	1339.722087933509	422.763796881896	1094.312340721898	1423.568824017346	604.752525732534	1045.741021101297	1477.251167484648	431.883561051352	1071.742886161043	924.588016757870	585.823990775521	1040.096438557045	940.436062824349	311.148932573516	1054.466325703893	711.081510162820	563.248494092004	941.916927746934	624.627989119424	624.253818284177	997.462506045611	554.551444220429	544.484226543256	971.155644980219	469.008590594846	547.398853747038	1113.297139682862	765.370079201801	347.749218782168	1063.112245343179	631.720135850130	275.163491955782	1167.635906845309	576.452101642165	337.154569927912	1193.237197057713	512.695359802566	337.434304168233	1182.412875523776	441.042903554185	328.302839161941	1126.037062784740	304.767196676033	284.853935493735	1222.938940711739	216.006404632093	340.708011424456	925.160247155722	389.156277177511	553.742387540222	833.521841184856	303.239707189073	616.656825220870	850.815519188731	202.257259048768	551.645578944316	687.436058430218	53.755292051333	522.498527865421	861.624489629972	97.161604386083	557.071852927510	770.594278797873	41.443509278414	595.988755456114	978.782496209077	38.285733441576	585.721356507296	1154.868039400192	38.112005760171	388.476969442325	1225.924755426837	42.448896047835	305.644916514075	1294.705964191663	120.056425449556	323.505585388636	1428.487427137058	91.969609713369	294.338385826780	836.871853355942	1109.076898117019	205.953160445948	798.364783435138	850.231340537065	219.977394672291	1269.777168737779	1132.833994743278	690.462918076923	1473.256086539340	1218.008126915424	568.408773580136	
125	51.279142857143	846.701030302182	1001.612659358627	484.646343750774	1014.982487643669	1414.481964368896	278.572128665430	1140.874545959769	1339.129025531239	420.655011494680	1093.594924470234	1422.814138968198	602.459524212147	1045.462224494485	1476.153701992087	429.316876982501	1073.669126201017	923.228984545583	584.256873074207	1043.648476608866	938.900296797039	309.521059075361	1055.956127363990	709.311213772166	562.031924728083	942.773628234579	623.164173679835	622.609542035299	998.569353788432	552.637849485147	543.197220578043	971.639500183729	466.117720965365	546.205138083014	1117.184993552615	763.831328655391	346.624428083595	1065.759571946388	630.208299516914	274.915172059300	1170.100178155516	574.928211152368	336.874398657640	1194.055540647584	509.772028229321	337.714077019725	1182.652519907439	437.753253404379	328.486692747271	1123.929423006165	302.330515836684	285.549165131914	1218.997073496001	212.151632738413	342.040527207657	923.613458811428	387.155321238318	552.534531553248	830.192842389846	303.373370663960	615.730777138743	845.338124948533	201.893053817672	551.159090395694	679.196860130610	55.693973457924	522.834691300965	853.949437701489	97.286048037841	557.074066619984	762.375110776231	42.381128985896	596.226150262179	970.457833122137	38.153568095865	585.756905204370	1146.207203410389	37.439768400356	390.462701242341	1216.939911420472	39.875833715519	307.087370734805	1288.806446057076	114.462147810267	325.620392450949	1421.575590292082	81.293546752621	295.578267911879	839.492712098345	1106.156659254442	203.311573954012	802.665483849848	847.055871786441	217.714659739340	1268.621256790255	1131.564712310204	688.855110157368	1470.973981563202	1218.608570035268	566.275655661813	
126	51.291071428571	849.037616181677	999.787881063800	481.787239918267	1015.564169276225	1412.920903546100	275.722585182599	1141.431602141445	1338.659125099367	418.445752344755	1092.861628440590	1422.342763926665	599.988667530460	1045.319645096219	1475.231400133130	426.467400097333	1075.549158253890	922.064998137150	582.728305274081	1047.196924629270	937.640309090174	308.002648313619	1057.897476488313	707.732543217913	560.764734464872	944.395105635119	621.576834723946	620.840069135533	1000.717580937342	550.726443785546	541.823675351925	973.346548590905	462.955741947235	545.084901014639	1121.221850425208	762.718240518833	345.629892522721	1068.898527265249	629.395781076324	274.311212083380	1172.940388698734	573.978060210643	336.369918325057	1195.254632913091	507.474597015101	337.585489903263	1183.260364692888	435.044445189108	328.245325657902	1122.255645256160	300.567702037819	285.474761972308	1215.217122828301	208.857820620592	342.808829231518	922.970339127927	385.060159791922	551.289678632609	827.549214875570	303.737294075088	614.715832648370	840.389418731037	201.743971416513	550.638898502062	671.128271165259	58.425935750736	523.125006066013	846.563252640359	97.475330248682	557.065292732264	754.237227201765	43.773567165477	596.405885806654	962.066948744753	37.941119997258	585.739122089072	1137.414624247104	37.135157600503	391.646461861001	1208.057564141865	37.828426239109	307.947460006133	1282.771871138880	109.590687879593	327.329198404573	1414.594864359953	71.657421505860	296.893480120577	842.886331982637	1102.790946531520	200.464230873572	807.762125305342	843.466890359141	215.157323811171	1266.605908156842	1129.910789900553	687.631938992902	1468.271381926552	1217.781809462132	564.387065911924	
127	51.303000000000	851.202129579733	998.260648923875	478.988184857875	1016.343153320587	1411.444265876005	272.641254134817	1142.060329568563	1338.359110951097	416.161189587722	1092.128541031067	1422.237110039596	597.344799355003	1045.344764319928	1474.545104352957	423.345183007941	1077.312724924850	921.184521417981	581.257328013195	1050.652637918112	936.740700892662	306.606420294900	1060.300681631907	706.445562650563	559.439421940669	946.862231102499	619.922601620217	618.976071348396	1004.015937507257	548.896610136382	540.400811894836	976.412446487486	459.602990507390	544.124226527123	1125.270306671296	762.072059944918	344.698907408312	1072.331997125515	629.280167138799	273.337611550443	1175.981151440721	573.585689291687	335.539579830524	1196.732140828733	505.863742827550	336.955453427593	1184.116775241268	432.974183970568	327.558940739012	1120.918350064795	299.509030658908	284.692295716572	1211.579514261167	206.218943111847	343.017648847842	923.371934354478	382.960635195713	550.075510423482	825.707770909443	304.452561705577	613.622549943638	836.105560555818	201.934675990914	550.101263778625	663.370293626054	62.210982820981	523.288597729440	839.577775290648	97.791200505101	557.038877443294	746.250162359704	45.805162264941	596.476823297763	953.598594684888	37.609854170493	585.658910708473	1128.736851130728	37.132886754010	392.139963300664	1199.463375847090	36.331406010843	308.291791341811	1276.627341955110	105.640928874087	328.571340303517	1407.606522001384	63.570920893417	298.138029846792	847.066696629351	1099.078055956688	197.428751816907	813.663478642977	839.561583859370	212.316469037880	1263.705502133652	1127.979706117435	686.785330291755	1465.156362270784	1215.524295474504	562.727816283812	
128	51.314928571429	853.146865882390	997.115856925241	476.268303878358	1017.330273122165	1410.116422903928	269.357940155774	1142.748192123230	1338.273571614465	413.829973131048	1091.406121566221	1422.566301423948	594.539310690988	1045.552575179811	1474.146569028521	419.971846596593	1078.889249734137	920.666245646623	579.859066150876	1053.938448095679	936.269310319384	305.331728470413	1063.169279636783	705.548310147866	558.057489273936	950.238554816801	618.272935396123	617.065620730532	1008.547672814317	547.239635044989	538.985722132081	980.936264773019	456.172820953057	543.416643863881	1129.187159520202	761.895323117690	343.727133610682	1075.793017560130	629.786911124063	272.033168919608	1178.987038030202	573.672034883228	334.316668242106	1198.311126960164	504.911986781965	335.811102006727	1185.023890218900	431.521422061959	326.474388323049	1119.711373854430	299.111554874508	283.348329530450	1207.960975677695	204.243527289807	342.742386865185	924.952548402068	380.965130143332	548.971946388132	824.790204985859	305.644225958204	612.460565816613	832.633857164430	202.597827203536	549.558059550945	656.107980394315	67.306418037469	523.216350872282	833.120863142705	98.321581601505	556.982150291389	738.512790028437	48.677418179912	596.369220182265	945.061229471533	37.126008272649	585.517369700986	1120.283689256532	37.341916146595	392.097472280297	1191.200862492076	35.348057739231	308.223330873496	1270.322832680141	102.683335432965	329.346297626776	1400.586422692915	57.304027166748	299.195661484647	852.038346253064	1095.129973113817	194.223293228174	820.394639593447	835.448945145216	209.207409831123	1259.886595581822	1125.903211519330	686.297331292312	1461.613525023550	1211.838713380645	561.292569690269	
